<?xml version="1.0" encoding="UTF-8"?>
<svg xmlns="http://www.w3.org/2000/svg" xmlns:xlink="http://www.w3.org/1999/xlink" width="578.3pt" height="121.9pt" viewBox="0 0 578.3 121.9" version="1.1">
<defs>
<clipPath id="clip1">
  <path d="M 513 10 L 578.300781 10 L 578.300781 100 L 513 100 Z M 513 10 "/>
</clipPath>
</defs>
<g id="surface1">
<path style="fill-rule:evenodd;fill:rgb(10.594177%,9.812927%,9.423828%);fill-opacity:1;stroke-width:5.669;stroke-linecap:butt;stroke-linejoin:miter;stroke:rgb(10.594177%,9.812927%,9.423828%);stroke-opacity:1;stroke-miterlimit:4;" d="M 263.789063 991.304688 C 263.789063 991.304688 198.789063 1056.34375 326.289063 1103.84375 C 616.5625 1211.96875 892.695313 557.085938 376.289063 408.804688 C 154.101563 354.859375 -46.71875 766.773438 263.789063 991.304688 Z M 263.789063 991.304688 " transform="matrix(0.1,0,0,-0.1,0,121.9)"/>
<path style="fill-rule:evenodd;fill:rgb(100%,100%,100%);fill-opacity:1;stroke-width:5.669;stroke-linecap:butt;stroke-linejoin:miter;stroke:rgb(10.594177%,9.812927%,9.423828%);stroke-opacity:1;stroke-miterlimit:4;" d="M 273.789063 668.804688 C 298.789063 511.304688 413.789063 667.554688 413.789063 667.554688 C 566.328125 1036.34375 236.25 905.445313 273.789063 668.804688 Z M 273.789063 668.804688 " transform="matrix(0.1,0,0,-0.1,0,121.9)"/>
<path style="fill-rule:evenodd;fill:rgb(10.594177%,9.812927%,9.423828%);fill-opacity:1;stroke-width:5.669;stroke-linecap:butt;stroke-linejoin:miter;stroke:rgb(10.594177%,9.812927%,9.423828%);stroke-opacity:1;stroke-miterlimit:4;" d="M 723.789063 1047.554688 C 754.570313 1171.148438 823.867188 1162.476563 877.578125 1101.03125 C 943.164063 1025.953125 992.851563 875.835938 1012.539063 837.554688 L 1036.289063 1100.054688 C 1084.53125 1205.5625 1158.90625 1133.0625 1217.539063 1081.304688 C 1202.695313 839.9375 1192.890625 0.992188 885.078125 645.679688 L 860.078125 415.679688 C 860.078125 415.679688 777.578125 338.179688 675.078125 363.179688 C 675.078125 363.179688 682.578125 910.679688 723.789063 1047.554688 Z M 723.789063 1047.554688 " transform="matrix(0.1,0,0,-0.1,0,121.9)"/>
<path style="fill-rule:evenodd;fill:rgb(10.594177%,9.812927%,9.423828%);fill-opacity:1;stroke-width:5.669;stroke-linecap:butt;stroke-linejoin:miter;stroke:rgb(10.594177%,9.812927%,9.423828%);stroke-opacity:1;stroke-miterlimit:4;" d="M 1398.828125 1082.59375 C 1398.828125 1082.59375 1580.078125 1150.09375 1638.828125 1117.59375 C 1712.890625 965.679688 1523.554688 954.195313 1418.828125 933.84375 C 1418.828125 933.84375 1407.578125 905.09375 1486.328125 912.59375 C 1587.578125 930.25 1615.507813 769.15625 1413.828125 748.84375 C 1380.546875 438.21875 1579.375 798.804688 1618.828125 710.09375 C 1618.4375 707.515625 1617.96875 691.773438 1620.859375 683.648438 C 1625.664063 670.132813 1635.390625 660.09375 1637.773438 637.515625 C 1640.898438 608.296875 1626.289063 574.15625 1626.71875 548.84375 C 1627.03125 529.234375 1649.023438 514.742188 1645.078125 510.09375 C 1606.484375 464.625 1554.882813 427.984375 1498.4375 407.59375 C 1380.273438 365.015625 1247.890625 391.773438 1213.828125 548.84375 C 1178.828125 710.09375 1256.328125 978.84375 1256.328125 978.84375 C 1297.304688 1162.59375 1424.84375 1112.984375 1398.828125 1082.59375 Z M 1398.828125 1082.59375 " transform="matrix(0.1,0,0,-0.1,0,121.9)"/>
<path style="fill-rule:evenodd;fill:rgb(10.594177%,9.812927%,9.423828%);fill-opacity:1;stroke-width:5.669;stroke-linecap:butt;stroke-linejoin:miter;stroke:rgb(10.594177%,9.812927%,9.423828%);stroke-opacity:1;stroke-miterlimit:4;" d="M 2003.085938 638.257813 C 2016.953125 768.375 2074.804688 1147.398438 2184.492188 1215.679688 C 2423.125 1201.265625 2535.273438 1039.976563 2524.140625 816.890625 C 2515.546875 645.601563 2384.960938 508.804688 2238.242188 428.179688 C 2194.765625 413.84375 2143.710938 416.617188 2091.914063 420.328125 C 2040.117188 424.039063 1987.539063 428.6875 1973.59375 448.0625 C 1963.203125 462.476563 1978.632813 471.34375 2009.648438 492.632813 C 2034.804688 509.898438 2068.085938 539 2123.242188 556.929688 C 2120.390625 608.140625 1989.296875 508.960938 2003.085938 638.257813 Z M 2003.085938 638.257813 " transform="matrix(0.1,0,0,-0.1,0,121.9)"/>
<path style="fill-rule:evenodd;fill:rgb(100%,100%,100%);fill-opacity:1;stroke-width:5.669;stroke-linecap:butt;stroke-linejoin:miter;stroke:rgb(10.594177%,9.812927%,9.423828%);stroke-opacity:1;stroke-miterlimit:4;" d="M 2186.367188 629.429688 C 2179.296875 612.632813 2192.617188 614.585938 2198.4375 616.1875 C 2210.859375 619.585938 2255.976563 652.398438 2287.070313 706.382813 C 2324.0625 770.601563 2356.328125 922.710938 2333.632813 994.78125 C 2320.390625 1036.773438 2298.476563 1057.75 2285.195313 1040.953125 C 2262.851563 1012.710938 2251.523438 915.523438 2234.609375 822.398438 C 2219.21875 737.789063 2197.8125 656.695313 2186.367188 629.429688 Z M 2186.367188 629.429688 " transform="matrix(0.1,0,0,-0.1,0,121.9)"/>
<path style="fill-rule:evenodd;fill:rgb(10.594177%,9.812927%,9.423828%);fill-opacity:1;stroke-width:5.669;stroke-linecap:butt;stroke-linejoin:miter;stroke:rgb(10.594177%,9.812927%,9.423828%);stroke-opacity:1;stroke-miterlimit:4;" d="M 2597.460938 1066.304688 C 2610.820313 1118.84375 2631.640625 1160.796875 2657.929688 1168.21875 C 2690.117188 1177.320313 2763.554688 1142.710938 2759.804688 996.03125 C 2758.671875 952.203125 2738.007813 829.703125 2726.71875 736.265625 C 2717.226563 657.671875 2723.59375 584.625 2697.304688 549.195313 C 2657.578125 495.601563 2577.734375 544 2557.539063 556.265625 C 2478.007813 604.664063 2580.859375 1000.992188 2597.460938 1066.304688 Z M 2597.460938 1066.304688 " transform="matrix(0.1,0,0,-0.1,0,121.9)"/>
<path style="fill-rule:evenodd;fill:rgb(10.594177%,9.812927%,9.423828%);fill-opacity:1;stroke-width:5.669;stroke-linecap:butt;stroke-linejoin:miter;stroke:rgb(10.594177%,9.812927%,9.423828%);stroke-opacity:1;stroke-miterlimit:4;" d="M 2929.179688 1181.65625 C 2929.179688 1181.65625 2942.304688 1131.65625 2969.804688 1132.90625 C 2997.304688 1134.15625 3051.054688 1152.90625 3051.054688 1152.90625 C 3360 1197.4375 3361.914063 781.1875 3107.304688 735.40625 C 3107.304688 735.40625 3106.054688 492.90625 3347.304688 396.65625 C 3347.304688 396.65625 3397.304688 235.40625 3171.054688 291.65625 C 3171.054688 291.65625 3016.054688 366.65625 2933.554688 567.90625 C 2919.921875 580.015625 2915.546875 546.304688 2912.578125 507.007813 C 2909.453125 465.601563 2908.007813 417.90625 2907.304688 406.65625 C 2907.304688 406.65625 2844.804688 416.65625 2813.554688 341.65625 C 2808.789063 311.851563 2721.679688 395.484375 2722.304688 399.15625 C 2722.304688 399.15625 2758.554688 691.65625 2777.304688 691.65625 C 2778.632813 696.070313 2820.039063 837.125 2834.53125 933.6875 C 2840.507813 973.53125 2811.328125 956.578125 2821.210938 997.125 C 2830.195313 1034.078125 2851.25 1048.257813 2863.164063 1078.609375 C 2892.070313 1152.4375 2907.851563 1219.859375 2929.179688 1181.65625 Z M 2929.179688 1181.65625 " transform="matrix(0.1,0,0,-0.1,0,121.9)"/>
<path style="fill-rule:evenodd;fill:rgb(100%,100%,100%);fill-opacity:1;stroke-width:5.669;stroke-linecap:butt;stroke-linejoin:miter;stroke:rgb(10.594177%,9.812927%,9.423828%);stroke-opacity:1;stroke-miterlimit:4;" d="M 3023.632813 867.28125 C 3098.632813 921.03125 3116.132813 983.53125 3116.132813 983.53125 C 2960 1029.46875 2948.320313 813.296875 3023.632813 867.28125 Z M 3023.632813 867.28125 " transform="matrix(0.1,0,0,-0.1,0,121.9)"/>
<path style="fill-rule:evenodd;fill:rgb(10.594177%,9.812927%,9.423828%);fill-opacity:1;stroke-width:5.669;stroke-linecap:butt;stroke-linejoin:miter;stroke:rgb(10.594177%,9.812927%,9.423828%);stroke-opacity:1;stroke-miterlimit:4;" d="M 3620.507813 601.03125 C 3624.804688 637.632813 3587.5 640.25 3547.34375 641.460938 C 3479.882813 643.492188 3464.21875 657.554688 3461.367188 674.78125 C 3458.867188 689.742188 3467.96875 720.757813 3487.304688 739.546875 C 3500.117188 752.046875 3543.085938 766.96875 3576.796875 797.28125 C 3582.070313 802.046875 3590.742188 805.445313 3592.929688 812.125 C 3595.429688 819.742188 3591.25 830.71875 3593.789063 836.421875 C 3598.007813 845.914063 3606.875 848.023438 3605.976563 855.40625 C 3604.882813 864.351563 3605.390625 872.359375 3588.945313 872.28125 C 3564.414063 872.125 3522.265625 861.617188 3536.757813 896.03125 C 3567.148438 895.679688 3584.140625 908.492188 3602.890625 912.710938 C 3626.796875 918.101563 3652.890625 919.234375 3664.101563 928.726563 C 3667.851563 931.890625 3673.867188 975.992188 3682.578125 1015.640625 C 3686.953125 1035.445313 3703.710938 1052.320313 3697.773438 1066.109375 C 3691.992188 1079.546875 3667.148438 1077.984375 3648.007813 1078.570313 C 3648.007813 1078.570313 3541.757813 1062.90625 3498.632813 1106.65625 C 3498.632813 1106.65625 3386.757813 1067.90625 3336.757813 917.90625 C 3206.328125 690.953125 3178.828125 480.796875 3482.226563 444.78125 C 3537.03125 438.257813 3577.96875 453.960938 3600.898438 501.148438 C 3612.695313 525.484375 3627.96875 554.117188 3620.507813 601.03125 Z M 3620.507813 601.03125 " transform="matrix(0.1,0,0,-0.1,0,121.9)"/>
<path style="fill-rule:evenodd;fill:rgb(10.594177%,9.812927%,9.423828%);fill-opacity:1;stroke-width:5.669;stroke-linecap:butt;stroke-linejoin:miter;stroke:rgb(10.594177%,9.812927%,9.423828%);stroke-opacity:1;stroke-miterlimit:4;" d="M 4081.171875 642.945313 C 4139.921875 590.445313 4138.671875 544.195313 4138.671875 544.195313 C 4131.71875 409.273438 3815.976563 388.375 3727.421875 469.195313 C 3465.9375 759.390625 3818.203125 1189.078125 4008.671875 1017.945313 C 4109.570313 927.242188 4045.585938 769.46875 3980.976563 719.976563 C 3934.648438 684.46875 3886.132813 706.265625 3906.171875 840.445313 C 3906.171875 840.445313 3878.359375 810.796875 3860.625 766.929688 C 3830.976563 693.609375 3844.960938 647.515625 3857.734375 618.257813 C 3870.546875 588.921875 3882.226563 576.578125 3912.773438 580.835938 C 3951.25 586.1875 3984.921875 634.429688 4018.671875 651.96875 C 4043.164063 664.664063 4072.304688 650.875 4081.171875 642.945313 Z M 4081.171875 642.945313 " transform="matrix(0.1,0,0,-0.1,0,121.9)"/>
<path style="fill-rule:evenodd;fill:rgb(10.594177%,9.812927%,9.423828%);fill-opacity:1;stroke-width:5.669;stroke-linecap:butt;stroke-linejoin:miter;stroke:rgb(10.594177%,9.812927%,9.423828%);stroke-opacity:1;stroke-miterlimit:4;" d="M 4122.695313 1073.257813 C 4086.835938 1068.140625 4028.554688 984.078125 4091.640625 942.398438 C 4112.421875 928.6875 4150.351563 923.453125 4201.484375 922.007813 C 4253.59375 888.765625 4207.773438 568.21875 4203.359375 496.382813 C 4203.359375 496.382813 4183.046875 341.070313 4276.796875 357.945313 C 4276.796875 357.945313 4294.296875 308.570313 4332.421875 357.945313 C 4370.546875 407.320313 4360.546875 366.070313 4360.546875 366.070313 C 4360.546875 366.070313 4381.171875 360.445313 4383.671875 370.445313 C 4386.171875 380.445313 4396.171875 851.070313 4396.171875 851.070313 C 4396.171875 851.070313 4402.421875 881.070313 4588.671875 901.070313 C 4774.921875 921.070313 4802.421875 999.820313 4802.421875 999.820313 C 4805.859375 1017.203125 4796.054688 1028.023438 4796.992188 1039.3125 C 4798.554688 1058.453125 4807.578125 1073.023438 4794.296875 1080.640625 C 4756.132813 1102.515625 4669.570313 1089.859375 4609.921875 1089.859375 C 4609.257813 1089.859375 4624.570313 1138.335938 4591.171875 1138.140625 C 4473.945313 1137.4375 4208.242188 1087.710938 4122.695313 1073.257813 Z M 4122.695313 1073.257813 " transform="matrix(0.1,0,0,-0.1,0,121.9)"/>
<path style="fill-rule:evenodd;fill:rgb(10.594177%,9.812927%,9.423828%);fill-opacity:1;stroke-width:5.669;stroke-linecap:butt;stroke-linejoin:miter;stroke:rgb(10.594177%,9.812927%,9.423828%);stroke-opacity:1;stroke-miterlimit:4;" d="M 4640.859375 677.945313 C 4640.859375 677.945313 4635.859375 371.695313 4608.359375 394.195313 C 4596.015625 387.359375 4581.445313 337.476563 4541.25 336.96875 C 4528.945313 336.851563 4517.929688 349.78125 4499.804688 361.421875 C 4483.359375 372.007813 4459.6875 379.859375 4448.75 407.007813 C 4417.96875 483.53125 4426.25 607.984375 4450.039063 704.546875 C 4460.195313 745.71875 4465.820313 783.570313 4478.828125 808.960938 C 4544.492188 937.320313 4651.992188 835.210938 4640.859375 677.945313 Z M 4640.859375 677.945313 " transform="matrix(0.1,0,0,-0.1,0,121.9)"/>
<path style="fill-rule:evenodd;fill:rgb(10.594177%,9.812927%,9.423828%);fill-opacity:1;stroke-width:5.669;stroke-linecap:butt;stroke-linejoin:miter;stroke:rgb(10.594177%,9.812927%,9.423828%);stroke-opacity:1;stroke-miterlimit:4;" d="M 5199.570313 749.195313 C 5199.570313 749.195313 5223.320313 580.445313 5137.070313 445.445313 C 5137.070313 445.445313 5047.070313 245.445313 4805.820313 337.945313 C 4571.914063 447.671875 4720.742188 1017.75 4969.609375 1033.0625 C 4987.539063 1034.15625 5017.96875 1035.328125 5033.320313 1023.921875 C 5042.617188 1017.007813 5036.484375 999.390625 5046.953125 991.851563 C 5073.242188 972.945313 5109.101563 955.953125 5131.835938 928.140625 C 5176.796875 873.0625 5199.570313 799.15625 5199.570313 749.195313 Z M 5199.570313 749.195313 " transform="matrix(0.1,0,0,-0.1,0,121.9)"/>
<path style="fill-rule:evenodd;fill:rgb(100%,100%,100%);fill-opacity:1;stroke-width:5.669;stroke-linecap:butt;stroke-linejoin:miter;stroke:rgb(10.594177%,9.812927%,9.423828%);stroke-opacity:1;stroke-miterlimit:4;" d="M 4880.078125 599.195313 C 4873.554688 534.546875 4882.226563 500.171875 4903.59375 494.546875 C 4922.695313 489.507813 4934.53125 513.335938 4953.671875 546.695313 C 5020.898438 663.84375 5000.195313 843.804688 4960.15625 849.429688 C 4946.601563 851.34375 4936.328125 806.734375 4921.25 761.265625 C 4907.148438 718.6875 4888.007813 677.945313 4880.078125 599.195313 Z M 4880.078125 599.195313 " transform="matrix(0.1,0,0,-0.1,0,121.9)"/>
<path style=" stroke:none;fill-rule:evenodd;fill:rgb(10.594177%,9.812927%,9.423828%);fill-opacity:1;" d="M 557.742188 29.351563 C 554.742188 47.101563 553.367188 46.476563 553.367188 46.476563 C 542.660156 21 534.550781 19.273438 529.960938 27.980469 C 526.449219 34.632813 525.59375 47.621094 523.648438 59.363281 C 522.144531 68.429688 519.738281 76.867188 518.617188 82.226563 C 518.617188 82.226563 512.992188 94.601563 523.742188 94.105469 C 525.777344 94.007813 528.335938 93.617188 530.117188 92.402344 C 533.671875 89.976563 535.589844 85.171875 537.433594 80.746094 C 538.625 77.875 540.257813 75.414063 540.683594 73.003906 C 541.316406 69.398438 540.246094 66.84375 541.589844 66.570313 C 542.773438 66.324219 544.765625 68.707031 546.75 74.789063 C 547.835938 78.117188 549.316406 82.339844 549.742188 88.351563 C 552.242188 95.167969 556.746094 97.207031 559.53125 96.226563 C 564.449219 94.496094 567.332031 83.015625 570.582031 69.066406 C 574.722656 51.28125 578.367188 29.714844 575.742188 21.726563 C 574.546875 13.351563 568.140625 11.894531 563.394531 16.078125 C 560.542969 18.59375 558.773438 23.261719 557.742188 29.351563 Z M 557.742188 29.351563 "/>
<g clip-path="url(#clip1)" clip-rule="nonzero">
<path style="fill:none;stroke-width:5.669;stroke-linecap:butt;stroke-linejoin:miter;stroke:rgb(10.594177%,9.812927%,9.423828%);stroke-opacity:1;stroke-miterlimit:4;" d="M 5577.421875 925.484375 C 5547.421875 747.984375 5533.671875 754.234375 5533.671875 754.234375 C 5426.601563 1009 5345.507813 1026.265625 5299.609375 939.195313 C 5264.492188 872.671875 5255.9375 742.789063 5236.484375 625.367188 C 5221.445313 534.703125 5197.382813 450.328125 5186.171875 396.734375 C 5186.171875 396.734375 5129.921875 272.984375 5237.421875 277.945313 C 5257.773438 278.921875 5283.359375 282.828125 5301.171875 294.976563 C 5336.71875 319.234375 5355.898438 367.28125 5374.335938 411.539063 C 5386.25 440.25 5402.578125 464.859375 5406.835938 488.960938 C 5413.164063 525.015625 5402.460938 550.5625 5415.898438 553.296875 C 5427.734375 555.757813 5447.65625 531.929688 5467.5 471.109375 C 5478.359375 437.828125 5493.164063 395.601563 5497.421875 335.484375 C 5522.421875 267.320313 5567.460938 246.929688 5595.3125 256.734375 C 5644.492188 274.039063 5673.320313 388.84375 5705.820313 528.335938 C 5747.226563 706.1875 5783.671875 921.851563 5757.421875 1001.734375 C 5745.46875 1085.484375 5681.40625 1100.054688 5633.945313 1058.21875 C 5605.429688 1033.0625 5587.734375 986.382813 5577.421875 925.484375 Z M 5577.421875 925.484375 " transform="matrix(0.1,0,0,-0.1,0,121.9)"/>
</g>
</g>
</svg>
